# xmcd CD database file
# Copyright (C) 1993-1998 Ti Kan
#
# Track frame offsets:
#  150
#  30935
#  49517
#  86307
#  110730
#  137160
#  147507
#  168380
#  185455
#  201682
#  218750
#  231650
#  258920
#  278270
#  301200
#  332770
#
# Disc length: 4545 seconds
#
# Revision: 1
# Processed by: cddbd v1.4b41PL1 Copyright (c) Steve Scherf et al.
# Submitted via: CDWizzard Release:4.35
#
DISCID=e611bf10
DTITLE=Duke Ellington - All-Star Road Band
DYEAR=1900
DGENRE=
TTITLE0=Mood Indigo
TTITLE1=Satin Doll
TTITLE2=Happy Go Lucky Local
TTITLE3=Things Ain't What They Used to Be/Do Nothin' Till You Hear from M
TTITLE3=e
TTITLE4=Guitar Amour
TTITLE5=Summertime
TTITLE6=C-Jam Blues
TTITLE7=Silk Lace
TTITLE8=I've Got It Bad (And That Ain't Good)
TTITLE9=Isfahan
TTITLE10=Timon of Athens
TTITLE11=Tutti for Cootie
TTITLE12=Stomping at the Savoy
TTITLE13=Jeep's Blues
TTITLE14=Diminuendo and Crescendo in Blue
TTITLE15=Satin Doll
EXTD=
EXTT0=
EXTT1=
EXTT2=
EXTT3=
EXTT4=
EXTT5=
EXTT6=
EXTT7=
EXTT8=
EXTT9=
EXTT10=
EXTT11=
EXTT12=
EXTT13=
EXTT14=
EXTT15=
PLAYORDER=
